# xmcd
#
# Track frame offsets:
#	150
#	21037
#	36195
#	47541
#
# Disc length: 916 seconds
#
# Revision: 1
# Processed by: cddbd v1.5.1PL0 Copyright (c) Steve Scherf et al.
# Submitted via: CDex 1.50Beta5
#
DISCID=26039204
DTITLE=ルラル - クラクション
DYEAR=2003
DGENRE=Pop
TTITLE0=クラクション
TTITLE1=I Love Boo
TTITLE2=(It's As)Easy As 1,2,3
TTITLE3=クラクション(Original Instrumental)
EXTD=
EXTT0=
EXTT1=
EXTT2=
EXTT3=
PLAYORDER=
